<svg width="510" height="138" viewBox="0 0 510 138" fill="none" xmlns="http://www.w3.org/2000/svg">
<g clip-path="url(#clip0_1_2)">
<path d="M111.42 138.098H26.6779C11.9429 138.098 0 126.155 0 111.42V26.6779C0 11.9448 11.9429 0 26.6779 0H111.42C126.153 0 138.098 11.9448 138.098 26.6779V111.42C138.098 126.155 126.153 138.098 111.42 138.098Z" fill="white"/>
<path d="M69.1642 104.723C69.1642 110.941 64.1215 115.981 57.9037 115.981C51.684 115.981 46.6432 110.941 46.6432 104.723C46.6432 98.5032 51.684 93.4625 57.9037 93.4625C64.1215 93.4625 69.1642 98.5032 69.1642 104.723Z" fill="#272727"/>
<path d="M57.9037 94.2153C52.1102 94.2153 47.396 98.9294 47.396 104.723C47.396 110.514 52.1102 115.229 57.9037 115.229C63.6972 115.229 68.4095 110.514 68.4095 104.723C68.4095 98.9294 63.6972 94.2153 57.9037 94.2153ZM57.9037 116.736C51.2792 116.736 45.8885 111.347 45.8885 104.723C45.8885 98.0984 51.2792 92.7077 57.9037 92.7077C64.5282 92.7077 69.917 98.0984 69.917 104.723C69.917 111.347 64.5282 116.736 57.9037 116.736Z" fill="#221E1F"/>
<path d="M80.4403 50.8158H63.228C55.9602 50.8158 49.3963 55.1624 46.5592 61.8554V39.5554C46.5592 33.3356 51.6018 28.2949 57.8196 28.2949H91.6988V39.5554C91.6988 45.7732 86.6581 50.8158 80.4403 50.8158Z" fill="#272727"/>
<path d="M57.8216 29.0477C52.0281 29.0477 47.3139 33.7619 47.3139 39.5554V58.7993C50.7337 53.4085 56.6954 50.0611 63.228 50.0611H80.4403C86.2338 50.0611 90.946 45.3469 90.946 39.5554V29.0477H57.8216ZM45.8064 65.5665V39.5554C45.8064 32.9289 51.1952 27.5402 57.8216 27.5402H92.4536V39.5554C92.4536 46.1799 87.0648 51.5686 80.4403 51.5686H63.228C56.2476 51.5686 49.979 55.7216 47.2553 62.1487" fill="#221E1F"/>
<path d="M80.4403 81.0816H63.2847C56.5037 81.0816 50.2918 84.869 47.1888 90.8991L46.5592 92.1212V69.8212C46.5592 63.6014 51.6018 58.5607 57.8196 58.5607H91.6988V69.8212C91.6988 76.039 86.6581 81.0816 80.4403 81.0816Z" fill="#272727"/>
<path d="M57.8216 59.3135C52.0281 59.3135 47.3139 64.0277 47.3139 69.8212V89.1569C50.7474 83.6724 56.7306 80.3269 63.2847 80.3269H80.4403C86.2338 80.3269 90.946 75.6147 90.946 69.8212V59.3135H57.8216ZM45.8064 95.232V69.8212C45.8064 63.1947 51.1952 57.806 57.8216 57.806H92.4536V69.8212C92.4536 76.4457 87.0648 81.8344 80.4403 81.8344H63.2847C56.7579 81.8344 50.8471 85.44 47.8594 91.2432" fill="#221E1F"/>
<path d="M195.87 80.14H175.8V103H161.85V42.34H198.84V53.41H175.8V69.07H195.87V80.14ZM223.667 94C225.527 94 226.967 93.43 227.987 92.29C229.007 91.15 229.517 89.59 229.517 87.61V84.28H225.287C223.067 84.28 221.357 84.76 220.157 85.72C218.957 86.68 218.357 87.91 218.357 89.41C218.357 92.47 220.127 94 223.667 94ZM230.147 97.42C228.227 101.32 224.447 103.27 218.807 103.27C214.367 103.27 210.887 102.01 208.367 99.49C205.907 96.97 204.677 93.82 204.677 90.04C204.677 85.66 206.267 82.27 209.447 79.87C212.687 77.41 217.457 76.18 223.757 76.18H229.517V73.03C229.517 69.19 226.967 67.27 221.867 67.27C216.947 67.27 212.387 68.65 208.187 71.41V59.62C211.787 57.58 216.977 56.56 223.757 56.56C230.237 56.56 235.067 57.97 238.247 60.79C241.427 63.55 243.017 67.87 243.017 73.75V103H230.147V97.42ZM295.184 103H282.044V75.82C282.044 73.12 281.414 71.08 280.154 69.7C278.894 68.26 277.124 67.54 274.844 67.54C272.444 67.54 270.434 68.5 268.814 70.42C267.254 72.28 266.474 75.1 266.474 78.88V103H253.334V57.37H266.474V65.11C267.614 62.59 269.354 60.61 271.694 59.17C274.094 57.67 276.944 56.92 280.244 56.92C284.924 56.92 288.584 58.33 291.224 61.15C293.864 63.91 295.184 67.99 295.184 73.39V103ZM340.011 80.14H319.941V103H305.991V42.34H342.981V53.41H319.941V69.07H340.011V80.14ZM364.658 103H351.518V57.37H364.658V103ZM363.488 38.74C364.988 40.24 365.738 42.04 365.738 44.14C365.738 46.24 364.988 48.04 363.488 49.54C361.988 51.04 360.188 51.79 358.088 51.79C355.988 51.79 354.188 51.04 352.688 49.54C351.188 48.04 350.438 46.24 350.438 44.14C350.438 42.04 351.188 40.24 352.688 38.74C354.188 37.24 355.988 36.49 358.088 36.49C360.188 36.49 361.988 37.24 363.488 38.74ZM388.991 103H375.851L375.941 57.37H388.991V65.83C389.831 63.19 391.211 61.09 393.131 59.53C395.111 57.91 397.391 57.1 399.971 57.1C401.411 57.1 402.551 57.22 403.391 57.46V69.88C401.951 69.22 400.301 68.89 398.441 68.89C395.621 68.89 393.341 69.94 391.601 72.04C389.861 74.08 388.991 76.81 388.991 80.23V103ZM440.392 89.23C440.392 93.73 438.772 97.21 435.532 99.67C432.292 102.13 428.002 103.36 422.662 103.36C417.142 103.36 412.522 102.43 408.802 100.57V88.87C412.942 91.75 417.322 93.19 421.942 93.19C425.242 93.19 426.892 92.14 426.892 90.04C426.892 89.5 426.742 88.99 426.442 88.51C426.142 88.03 425.632 87.58 424.912 87.16C424.192 86.74 423.532 86.41 422.932 86.17C422.332 85.87 421.462 85.48 420.322 85C419.182 84.52 418.312 84.13 417.712 83.83C411.652 80.95 408.622 76.63 408.622 70.87C408.622 66.43 410.302 62.98 413.662 60.52C417.082 58.06 421.312 56.83 426.352 56.83C431.032 56.83 434.932 57.46 438.052 58.72V69.97C434.872 68.11 431.152 67.18 426.892 67.18C425.332 67.18 424.132 67.51 423.292 68.17C422.452 68.77 422.032 69.55 422.032 70.51C422.032 71.05 422.182 71.56 422.482 72.04C422.782 72.52 423.262 72.97 423.922 73.39C424.642 73.81 425.302 74.2 425.902 74.56C426.562 74.86 427.432 75.25 428.512 75.73C429.652 76.21 430.552 76.63 431.212 76.99C433.972 78.43 436.192 80.11 437.872 82.03C439.552 83.89 440.392 86.29 440.392 89.23ZM475.091 102.01C472.871 102.97 469.871 103.45 466.091 103.45C455.711 103.45 450.521 98.26 450.521 87.88V67H443.951V57.37H450.521V46.57H463.661V57.37H474.281V67H463.661V87.97C463.661 89.59 464.111 90.82 465.011 91.66C465.971 92.5 467.201 92.92 468.701 92.92C471.101 92.92 473.231 92.32 475.091 91.12V102.01Z" fill="white"/>
</g>
<defs>
<clipPath id="clip0_1_2">
<rect width="510" height="138" fill="white"/>
</clipPath>
</defs>
</svg>
