<svg width="510" height="138" viewBox="0 0 510 138" fill="none" xmlns="http://www.w3.org/2000/svg">
<g clip-path="url(#clip0_1_2)">
<path d="M111.42 138.098H26.6779C11.9429 138.098 0 126.155 0 111.42V26.6779C0 11.9448 11.9429 0 26.6779 0H111.42C126.153 0 138.098 11.9448 138.098 26.6779V111.42C138.098 126.155 126.153 138.098 111.42 138.098Z" fill="white"/>
<path d="M69.1642 104.723C69.1642 110.941 64.1215 115.981 57.9037 115.981C51.684 115.981 46.6432 110.941 46.6432 104.723C46.6432 98.5032 51.684 93.4625 57.9037 93.4625C64.1215 93.4625 69.1642 98.5032 69.1642 104.723Z" fill="#272727"/>
<path d="M57.9037 94.2153C52.1102 94.2153 47.396 98.9294 47.396 104.723C47.396 110.514 52.1102 115.229 57.9037 115.229C63.6972 115.229 68.4095 110.514 68.4095 104.723C68.4095 98.9294 63.6972 94.2153 57.9037 94.2153ZM57.9037 116.736C51.2792 116.736 45.8885 111.347 45.8885 104.723C45.8885 98.0984 51.2792 92.7077 57.9037 92.7077C64.5282 92.7077 69.917 98.0984 69.917 104.723C69.917 111.347 64.5282 116.736 57.9037 116.736Z" fill="#221E1F"/>
<path d="M80.4403 50.8158H63.228C55.9602 50.8158 49.3963 55.1624 46.5592 61.8554V39.5554C46.5592 33.3356 51.6018 28.2949 57.8196 28.2949H91.6988V39.5554C91.6988 45.7732 86.6581 50.8158 80.4403 50.8158Z" fill="#272727"/>
<path d="M57.8216 29.0477C52.0281 29.0477 47.3139 33.7619 47.3139 39.5554V58.7993C50.7337 53.4085 56.6954 50.0611 63.228 50.0611H80.4403C86.2338 50.0611 90.946 45.3469 90.946 39.5554V29.0477H57.8216ZM45.8064 65.5665V39.5554C45.8064 32.9289 51.1952 27.5402 57.8216 27.5402H92.4536V39.5554C92.4536 46.1799 87.0648 51.5686 80.4403 51.5686H63.228C56.2476 51.5686 49.979 55.7216 47.2553 62.1487" fill="#221E1F"/>
<path d="M80.4403 81.0816H63.2847C56.5037 81.0816 50.2918 84.869 47.1888 90.8991L46.5592 92.1212V69.8212C46.5592 63.6014 51.6018 58.5607 57.8196 58.5607H91.6988V69.8212C91.6988 76.039 86.6581 81.0816 80.4403 81.0816Z" fill="#272727"/>
<path d="M57.8216 59.3135C52.0281 59.3135 47.3139 64.0277 47.3139 69.8212V89.1569C50.7474 83.6724 56.7306 80.3269 63.2847 80.3269H80.4403C86.2338 80.3269 90.946 75.6147 90.946 69.8212V59.3135H57.8216ZM45.8064 95.232V69.8212C45.8064 63.1947 51.1952 57.806 57.8216 57.806H92.4536V69.8212C92.4536 76.4457 87.0648 81.8344 80.4403 81.8344H63.2847C56.7579 81.8344 50.8471 85.44 47.8594 91.2432" fill="#221E1F"/>
<path d="M212.79 76.79H191.73V101H180.3V40.34H215.85V49.61H191.73V67.52H212.79V76.79ZM240.422 93.35C242.822 93.35 244.682 92.66 246.002 91.28C247.382 89.84 248.072 87.98 248.072 85.7V81.38H242.492C239.672 81.38 237.512 81.98 236.012 83.18C234.512 84.32 233.762 85.79 233.762 87.59C233.762 91.43 235.982 93.35 240.422 93.35ZM248.522 95.51C246.422 99.41 242.462 101.36 236.642 101.36C232.322 101.36 228.872 100.1 226.292 97.58C223.772 95.06 222.512 91.88 222.512 88.04C222.512 83.72 224.132 80.33 227.372 77.87C230.612 75.41 235.292 74.18 241.412 74.18H248.072V71.39C248.072 68.87 247.412 66.95 246.092 65.63C244.772 64.31 242.522 63.65 239.342 63.65C234.482 63.65 230.012 65 225.932 67.7V57.71C229.352 55.61 234.272 54.56 240.692 54.56C253.052 54.56 259.232 60.32 259.232 71.84V101H248.522V95.51ZM309.977 101H299.177V72.92C299.177 69.92 298.457 67.67 297.017 66.17C295.577 64.61 293.627 63.83 291.167 63.83C288.347 63.83 285.977 64.94 284.057 67.16C282.137 69.32 281.177 72.44 281.177 76.52V101H270.377V55.37H281.177V63.2C283.757 57.62 288.437 54.83 295.217 54.83C299.777 54.83 303.377 56.21 306.017 58.97C308.657 61.73 309.977 65.63 309.977 70.67V101ZM354.206 76.79H333.146V101H321.716V40.34H357.266V49.61H333.146V67.52H354.206V76.79ZM377.428 101H366.628V55.37H377.428V101ZM378.508 41.69C378.508 43.55 377.878 45.11 376.618 46.37C375.358 47.63 373.828 48.26 372.028 48.26C370.228 48.26 368.698 47.63 367.438 46.37C366.178 45.11 365.548 43.55 365.548 41.69C365.548 39.89 366.178 38.36 367.438 37.1C368.698 35.84 370.228 35.21 372.028 35.21C373.828 35.21 375.358 35.84 376.618 37.1C377.878 38.36 378.508 39.89 378.508 41.69ZM400.357 101H389.467L389.557 55.37H400.357V63.47C402.457 57.83 406.297 55.01 411.877 55.01C413.137 55.01 414.157 55.1 414.937 55.28V65.72C413.557 65.12 412.027 64.82 410.347 64.82C407.407 64.82 405.007 66.02 403.147 68.42C401.287 70.82 400.357 73.82 400.357 77.42V101ZM451.076 87.86C451.076 92.12 449.546 95.45 446.486 97.85C443.426 100.25 439.346 101.45 434.246 101.45C428.606 101.45 424.046 100.52 420.566 98.66V88.76C424.586 91.46 428.936 92.81 433.616 92.81C435.596 92.81 437.126 92.45 438.206 91.73C439.346 90.95 439.916 89.9 439.916 88.58C439.916 87.8 439.736 87.11 439.376 86.51C439.016 85.85 438.326 85.22 437.306 84.62C436.286 84.02 435.476 83.6 434.876 83.36C434.336 83.06 433.226 82.55 431.546 81.83C431.366 81.77 431.216 81.71 431.096 81.65C431.036 81.59 430.916 81.53 430.736 81.47C430.556 81.41 430.406 81.35 430.286 81.29C423.626 78.29 420.296 73.97 420.296 68.33C420.296 64.13 421.886 60.83 425.066 58.43C428.246 56.03 432.236 54.83 437.036 54.83C441.656 54.83 445.496 55.49 448.556 56.81V66.35C445.556 64.55 441.806 63.65 437.306 63.65C435.446 63.65 433.976 64.07 432.896 64.91C431.876 65.69 431.366 66.71 431.366 67.97C431.366 68.45 431.426 68.9 431.546 69.32C431.726 69.74 431.996 70.16 432.356 70.58C432.776 70.94 433.166 71.27 433.526 71.57C433.886 71.87 434.396 72.2 435.056 72.56C435.716 72.86 436.286 73.13 436.766 73.37C437.246 73.61 437.906 73.91 438.746 74.27C439.586 74.63 440.246 74.93 440.726 75.17C443.906 76.73 446.426 78.47 448.286 80.39C450.146 82.31 451.076 84.8 451.076 87.86ZM484.894 99.92C482.794 100.94 480.094 101.45 476.794 101.45C466.954 101.45 462.034 96.47 462.034 86.51V63.47H455.194V55.37H462.034V44.39H472.834V55.37H484.174V63.47H472.834V86.69C472.834 88.61 473.344 90.08 474.364 91.1C475.384 92.06 476.794 92.54 478.594 92.54C480.874 92.54 482.974 91.91 484.894 90.65V99.92Z" fill="white"/>
</g>
<defs>
<clipPath id="clip0_1_2">
<rect width="510" height="138" fill="white"/>
</clipPath>
</defs>
</svg>
