<?xml version="1.0" standalone="no"?>
<!DOCTYPE svg PUBLIC "-//W3C//DTD SVG 20010904//EN"
 "http://www.w3.org/TR/2001/REC-SVG-20010904/DTD/svg10.dtd">
<svg version="1.0" xmlns="http://www.w3.org/2000/svg"
 width="139.000000pt" height="139.000000pt" viewBox="0 0 139.000000 139.000000"
 preserveAspectRatio="xMidYMid meet">
<metadata>
Created by potrace 1.14, written by Peter Selinger 2001-2017
</metadata>
<g transform="translate(0.000000,139.000000) scale(0.100000,-0.100000)"
fill="#000000" stroke="none">
<path d="M190 1378 c-77 -21 -154 -97 -179 -177 -6 -22 -10 -201 -11 -495 0
-533 0 -534 78 -613 82 -84 77 -83 613 -83 512 0 519 1 592 61 20 17 49 52 65
77 l27 47 0 505 c0 571 5 533 -82 617 -76 73 -81 73 -607 72 -258 -1 -476 -5
-496 -11z"/>
</g>
</svg>
